HIERARCHY
ROOT Hips
{
	OFFSET 0.000000 0.000000 0.000000
	CHANNELS 6 Xposition Yposition Zposition Zrotation Yrotation Xrotation 
	JOINT LowerBack
	{
		OFFSET 0.000000 0.000000 0.000000
		CHANNELS 3 Zrotation Yrotation Xrotation
		JOINT Spine
		{
			OFFSET 0.028270 2.035590 -0.193380
			CHANNELS 3 Zrotation Yrotation Xrotation
			JOINT Spine1
			{
				OFFSET 0.056720 2.048850 -0.042750
				CHANNELS 3 Zrotation Yrotation Xrotation
				JOINT Neck
				{
					OFFSET 0.000000 0.000000 0.000000
					CHANNELS 3 Zrotation Yrotation Xrotation
					JOINT Neck1
					{
						OFFSET -0.054170 1.746240 0.172020
						CHANNELS 3 Zrotation Yrotation Xrotation
						JOINT Head
						{
							OFFSET 0.104070 1.761360 -0.123970
							CHANNELS 3 Zrotation Yrotation Xrotation
							End Site
							{
								OFFSET 0.000000 0.000000 0.000000
							}
						}
					}
				}
				JOINT LeftShoulder
				{
					OFFSET 0.000000 0.000000 0.000000
					CHANNELS 3 Zrotation Yrotation Xrotation
					JOINT LeftArm
					{
						OFFSET 3.362410 1.200890 -0.311210
						CHANNELS 3 Zrotation Yrotation Xrotation
						JOINT LeftForeArm
						{
							OFFSET 4.983000 -0.000000 -0.000000
							CHANNELS 3 Zrotation Yrotation Xrotation
							JOINT LeftHand
							{
								OFFSET 3.483560 -0.000000 -0.000000
								CHANNELS 3 Zrotation Yrotation Xrotation
								JOINT LeftFingerBase
								{
									OFFSET 0.000000 0.000000 0.000000
									CHANNELS 3 Zrotation Yrotation Xrotation
									JOINT LeftHandIndex1
									{
										OFFSET 0.715260 -0.000000 -0.000000
										CHANNELS 3 Zrotation Yrotation Xrotation
										End Site
										{
											OFFSET 0.000000 0.000000 0.000000
										}
									}
								}
								JOINT LThumb
								{
									OFFSET 0.000000 0.000000 0.000000
									CHANNELS 3 Zrotation Yrotation Xrotation
									End Site
									{
										OFFSET 0.000000 0.000000 0.000000
									}
								}
							}
						}
					}
				}
				JOINT RightShoulder
				{
					OFFSET 0.000000 0.000000 0.000000
					CHANNELS 3 Zrotation Yrotation Xrotation
					JOINT RightArm
					{
						OFFSET -3.136600 1.374050 -0.404650
						CHANNELS 3 Zrotation Yrotation Xrotation
						JOINT RightForeArm
						{
							OFFSET -5.241900 -0.000000 -0.000000
							CHANNELS 3 Zrotation Yrotation Xrotation
							JOINT RightHand
							{
								OFFSET -3.444170 -0.000000 -0.000000
								CHANNELS 3 Zrotation Yrotation Xrotation
								JOINT RightFingerBase
								{
									OFFSET 0.000000 0.000000 0.000000
									CHANNELS 3 Zrotation Yrotation Xrotation
									JOINT RightHandIndex1
									{
										OFFSET -0.622530 -0.000000 -0.000000
										CHANNELS 3 Zrotation Yrotation Xrotation
										End Site
										{
											OFFSET 0.000000 0.000000 0.000000
										}
									}
								}
								JOINT RThumb
								{
									OFFSET 0.000000 0.000000 0.000000
									CHANNELS 3 Zrotation Yrotation Xrotation
									End Site
									{
										OFFSET 0.000000 0.000000 0.000000
									}
								}
							}
						}
					}
				}
			}
		}
	}
}
}
MOTION
Frames: 18
Frame Time: 0.008333
3.072418 17.400102 -0.938017 140.288837 -41.537368 -142.191313 -22.642669 -1.168958 1.595665 -5.302216 0.266134 -2.114743 -6.671289 0.352387 1.183538 4.575635 -12.115892 -7.659241 -3.072407 -0.225948 -0.342850 0.000000 0.000000 0.000000 -2.534958 18.605837 2.016600 -64.607792 9.595441 -10.078782 -4.051076 -22.423133 0.012582 6.079873 -0.913315 -0.043106 -0.060420 -0.106070 -0.000000 0.000000 0.000000 0.000000 0.000000 0.000000 0.000000 5.123456 -6.238370 -4.672739 85.047145 18.990510 24.662930 -179.480607 72.526318 179.895161 -9.413214 12.964282 -1.158163 0.124560 -0.863120 -0.000000 0.000000 0.000000 0.000000 0.000000 0.000000 0.000000 
3.071243 17.416596 -0.950779 140.649475 -40.992804 -142.649107 -22.634390 -1.130750 1.435936 -5.294030 0.305552 -2.144786 -6.641280 0.387367 1.227387 4.590418 -12.131401 -7.740432 -3.054793 -0.223903 -0.358897 0.000000 0.000000 0.000000 -2.620051 18.919665 1.990066 -64.999073 9.657918 -10.788371 -4.039797 -21.819947 0.013190 6.343192 -1.049440 -0.052510 -0.058619 -0.106287 -0.000000 0.000000 0.000000 0.000000 0.000000 0.000000 0.000000 5.113043 -6.199554 -4.659795 85.111010 18.823140 25.068901 -179.496082 72.650868 179.897970 -9.178964 12.969237 -1.129257 0.120562 -0.861215 -0.000000 0.000000 0.000000 0.000000 0.000000 0.000000 0.000000 
3.067437 17.431144 -0.962698 140.915745 -40.606940 -142.921715 -22.598439 -1.153123 1.228109 -5.272973 0.286776 -2.175917 -6.601262 0.362479 1.284513 4.622501 -12.163453 -7.817234 -3.034001 -0.221622 -0.372357 0.000000 0.000000 0.000000 -2.663457 19.169615 1.974283 -65.428471 9.752460 -11.510161 -4.025762 -21.176958 0.013801 6.648627 -1.181658 -0.062813 -0.056806 -0.105896 -0.000000 0.000000 0.000000 0.000000 0.000000 0.000000 0.000000 5.106812 -6.223173 -4.648087 85.111532 18.694987 25.482788 -179.509893 72.742845 179.900972 -8.921937 12.970731 -1.097268 0.115966 -0.858955 -0.000000 0.000000 0.000000 0.000000 0.000000 0.000000 0.000000 
3.060148 17.443597 -0.973039 141.142273 -40.388675 -143.077347 -22.493175 -1.219974 0.989399 -5.232586 0.222852 -2.206010 -6.553048 0.291243 1.351942 4.665710 -12.214770 -7.887420 -3.008149 -0.219005 -0.382421 0.000000 0.000000 0.000000 -2.681751 19.363070 1.966194 -65.880200 9.864667 -12.190511 -4.011138 -20.494852 0.014306 6.951303 -1.292339 -0.072514 -0.055349 -0.104869 -0.000000 0.000000 0.000000 0.000000 0.000000 0.000000 0.000000 5.087556 -6.303860 -4.639827 85.042859 18.587507 25.877825 -179.520634 72.790244 179.903973 -8.656508 12.969540 -1.063997 0.110872 -0.856375 -0.000000 0.000000 0.000000 0.000000 0.000000 0.000000 0.000000 
3.048816 17.454233 -0.981673 141.367380 -40.334851 -143.178646 -22.299911 -1.314308 0.741480 -5.170808 0.127935 -2.233854 -6.500160 0.188376 1.422868 4.720301 -12.303595 -7.947628 -2.977488 -0.216158 -0.387957 0.000000 0.000000 0.000000 -2.692475 19.474405 1.961813 -66.333903 10.025638 -12.787705 -3.997337 -19.817531 0.014630 7.205161 -1.359921 -0.079515 -0.054504 -0.103445 -0.000000 0.000000 0.000000 0.000000 0.000000 0.000000 0.000000 5.058019 -6.450215 -4.630557 84.899974 18.497394 26.246897 -179.529985 72.796342 179.906832 -8.403563 12.965259 -1.032038 0.105976 -0.853496 -0.000000 0.000000 0.000000 0.000000 0.000000 0.000000 0.000000 
3.033504 17.463031 -0.988538 141.602052 -40.439752 -143.259482 -22.014463 -1.422476 0.503606 -5.088708 0.014171 -2.256911 -6.444914 0.066684 1.495747 4.782782 -12.420063 -7.997529 -2.940932 -0.212980 -0.389319 0.000000 0.000000 0.000000 -2.695382 19.530652 1.958548 -66.773332 10.185401 -13.255961 -3.987524 -19.120838 0.014709 7.379946 -1.378886 -0.082817 -0.054521 -0.101507 -0.000000 0.000000 0.000000 0.000000 0.000000 0.000000 0.000000 5.005631 -6.644766 -4.624321 84.687154 18.392245 26.548905 -179.535251 72.747907 179.909343 -8.173625 12.959619 -1.002791 0.101131 -0.850488 -0.000000 0.000000 0.000000 0.000000 0.000000 0.000000 0.000000 
3.014512 17.470254 -0.994021 141.836559 -40.696375 -143.331219 -21.649169 -1.536509 0.289657 -4.990021 -0.110770 -2.274193 -6.389028 -0.065689 1.565372 4.853619 -12.583555 -8.035316 -2.899454 -0.209605 -0.386176 0.000000 0.000000 0.000000 -2.700147 19.502023 1.953113 -67.181219 10.372043 -13.573291 -3.982920 -18.450932 0.014524 7.447804 -1.339418 -0.081121 -0.055457 -0.099339 -0.000000 0.000000 0.000000 0.000000 0.000000 0.000000 0.000000 4.938752 -6.901589 -4.616069 84.409100 18.273184 26.783755 -179.538247 72.657641 179.911402 -7.986907 12.953775 -0.978948 0.097107 -0.847414 -0.000000 0.000000 0.000000 0.000000 0.000000 0.000000 0.000000 
2.992868 17.476194 -0.998820 142.039809 -41.099625 -143.374876 -21.235370 -1.654740 0.106352 -4.882506 -0.243576 -2.284483 -6.335843 -0.204947 1.630347 4.936961 -12.784197 -8.060938 -2.854469 -0.206134 -0.379213 0.000000 0.000000 0.000000 -2.692855 19.398129 1.944884 -67.543721 10.554479 -13.726197 -3.985660 -17.802380 0.014081 7.402055 -1.247730 -0.074826 -0.057290 -0.096955 -0.000000 0.000000 0.000000 0.000000 0.000000 0.000000 0.000000 4.864331 -7.207116 -4.607002 84.077564 18.114017 26.922520 -179.537322 72.522598 179.912900 -7.850106 12.947158 -0.961307 0.093895 -0.844443 -0.000000 0.000000 0.000000 0.000000 0.000000 0.000000 0.000000 
2.969560 17.481192 -1.003627 142.179507 -41.638292 -143.368590 -20.803841 -1.776453 -0.042290 -4.772757 -0.382020 -2.287961 -6.287044 -0.348587 1.688204 5.034973 -13.022864 -8.074379 -2.807729 -0.202708 -0.368841 0.000000 0.000000 0.000000 -2.669223 19.211168 1.932883 -67.850346 10.732287 -13.719216 -3.996287 -17.196539 0.013417 7.246150 -1.113298 -0.064832 -0.059873 -0.094530 -0.000000 0.000000 0.000000 0.000000 0.000000 0.000000 0.000000 4.792293 -7.559655 -4.595201 83.705040 17.906903 26.958711 -179.532599 72.351709 179.913788 -7.771128 12.939294 -0.950764 0.091786 -0.841651 -0.000000 0.000000 0.000000 0.000000 0.000000 0.000000 0.000000 
2.945648 17.485671 -1.009014 142.233256 -42.291895 -143.298333 -20.384205 -1.899492 -0.153661 -4.666976 -0.522471 -2.285409 -6.244200 -0.492796 1.737032 5.149249 -13.293551 -8.076705 -2.761130 -0.199458 -0.355752 0.000000 0.000000 0.000000 -2.624011 18.944614 1.916724 -68.094375 10.898093 -13.570165 -4.014419 -16.648121 0.012599 6.998912 -0.951660 -0.052839 -0.062985 -0.092201 -0.000000 0.000000 0.000000 0.000000 0.000000 0.000000 0.000000 4.732348 -7.949212 -4.579401 83.303840 17.644440 26.889041 -179.524101 72.157383 179.914083 -7.752637 12.928293 -0.947513 0.090918 -0.839030 -0.000000 0.000000 0.000000 0.000000 0.000000 0.000000 0.000000 
2.922107 17.490105 -1.015597 142.192846 -43.027111 -143.160755 -20.002508 -2.019507 -0.228618 -4.570826 -0.659182 -2.278515 -6.209188 -0.631737 1.774966 5.281350 -13.586361 -8.069105 -2.716573 -0.196518 -0.340571 0.000000 0.000000 0.000000 -2.552054 18.607044 1.896434 -68.272545 11.048977 -13.308045 -4.038847 -16.172458 0.011709 6.690194 -0.781559 -0.040645 -0.066379 -0.090111 -0.000000 0.000000 0.000000 0.000000 0.000000 0.000000 0.000000 4.693703 -8.360102 -4.558407 82.887727 17.322868 26.715638 -179.512100 71.952767 179.913835 -7.792116 12.911873 -0.951050 0.091317 -0.836563 -0.000000 0.000000 0.000000 0.000000 0.000000 0.000000 0.000000 
2.899631 17.494871 -1.023497 142.076645 -43.800910 -142.976959 -19.669164 -2.128129 -0.270047 -4.486879 -0.783386 -2.269420 -6.182797 -0.756683 1.801812 5.429283 -13.889206 -8.054372 -2.675098 -0.193928 -0.324213 0.000000 0.000000 0.000000 -2.454903 18.222862 1.871654 -68.385866 11.174236 -12.966927 -4.067266 -15.776251 0.010840 6.359248 -0.623280 -0.029851 -0.069805 -0.088344 -0.000000 0.000000 0.000000 0.000000 0.000000 0.000000 0.000000 4.679217 -8.772872 -4.532461 82.467687 16.946140 26.448604 -179.497027 71.750722 179.913130 -7.883653 12.887127 -0.960473 0.092908 -0.834153 -0.000000 0.000000 0.000000 0.000000 0.000000 0.000000 0.000000 
2.878589 17.500270 -1.032838 141.916517 -44.565269 -142.772933 -19.388225 -2.216739 -0.287237 -4.416720 -0.886154 -2.261219 -6.165623 -0.858906 1.817108 5.590032 -14.187067 -8.034155 -2.637517 -0.191739 -0.307176 0.000000 0.000000 0.000000 -2.335547 17.815378 1.842657 -68.438397 11.273086 -12.585699 -4.096975 -15.469779 0.010081 6.047086 -0.494502 -0.021653 -0.073051 -0.086973 -0.000000 0.000000 0.000000 0.000000 0.000000 0.000000 0.000000 4.689079 -9.164852 -4.501771 82.053760 16.519614 26.101092 -179.479365 71.563587 179.912079 -8.017551 12.851255 -0.974180 0.095503 -0.831694 -0.000000 0.000000 0.000000 0.000000 0.000000 0.000000 0.000000 
2.859043 17.506450 -1.043446 141.758174 -45.274182 -142.585502 -19.151182 -2.276710 -0.292693 -4.359243 -0.959211 -2.257150 -6.156643 -0.930501 1.821479 5.757160 -14.464749 -8.010398 -2.603765 -0.189926 -0.289919 0.000000 0.000000 0.000000 -2.202923 17.414252 1.809763 -68.437402 11.343375 -12.200199 -4.124914 -15.258456 0.009511 5.792677 -0.409341 -0.016456 -0.075951 -0.086019 -0.000000 0.000000 0.000000 0.000000 0.000000 0.000000 0.000000 4.717199 -9.514005 -4.467658 81.652770 16.053398 25.690518 -179.459586 71.403553 179.910791 -8.182406 12.801717 -0.990671 0.098827 -0.829021 -0.000000 0.000000 0.000000 0.000000 0.000000 0.000000 0.000000 
2.840531 17.513545 -1.054733 141.657217 -45.891109 -142.455444 -18.941419 -2.301345 -0.301220 -4.311514 -0.996572 -2.260280 -6.154129 -0.965953 1.816540 5.922281 -14.707833 -7.984899 -2.573034 -0.188408 -0.272791 0.000000 0.000000 0.000000 -2.069118 17.050693 1.773577 -68.392885 11.384153 -11.840540 -4.148106 -15.144880 0.009188 5.627340 -0.377283 -0.014353 -0.078384 -0.085464 -0.000000 0.000000 0.000000 0.000000 0.000000 0.000000 0.000000 4.752062 -9.801099 -4.432273 81.268130 15.560870 25.236356 -179.437962 71.278046 179.909382 -8.365876 12.737336 -1.008049 0.102536 -0.826001 -0.000000 0.000000 0.000000 0.000000 0.000000 0.000000 0.000000 
2.822600 17.521415 -1.066283 141.655714 -46.387867 -142.411940 -18.743066 -2.287800 -0.327991 -4.270362 -0.995901 -2.273328 -6.155426 -0.963471 1.803090 6.077120 -14.903894 -7.957852 -2.544473 -0.187126 -0.255668 0.000000 0.000000 0.000000 -1.946123 16.745093 1.735354 -68.315603 11.406111 -11.532233 -4.164321 -15.136416 0.009141 5.569028 -0.401415 -0.015448 -0.080298 -0.085293 -0.000000 0.000000 0.000000 0.000000 0.000000 0.000000 0.000000 4.781992 -10.011153 -4.397257 80.900630 15.055726 24.758277 -179.414857 71.192591 179.907952 -8.555907 12.657015 -1.024717 0.106296 -0.822523 -0.000000 0.000000 0.000000 0.000000 0.000000 0.000000 0.000000 
2.804399 17.529851 -1.077307 141.797183 -46.749664 -142.485540 -18.532447 -2.235047 -0.385622 -4.230602 -0.957229 -2.297584 -6.156808 -0.923590 1.785468 6.212599 -15.045611 -7.932479 -2.516178 -0.185880 -0.239239 0.000000 0.000000 0.000000 -1.847673 16.530493 1.695665 -68.216986 11.399913 -11.284333 -4.171907 -15.221561 0.009380 5.624734 -0.483029 -0.019638 -0.081700 -0.085401 -0.000000 0.000000 0.000000 0.000000 0.000000 0.000000 0.000000 4.791776 -10.136994 -4.366078 80.547722 14.556326 24.277100 -179.390435 71.147801 179.906576 -8.742522 12.561716 -1.039483 0.109795 -0.818517 -0.000000 0.000000 0.000000 0.000000 0.000000 0.000000 0.000000 
2.785362 17.538607 -1.087468 142.096505 -46.973460 -142.681286 -18.300018 -2.147289 -0.485300 -4.189797 -0.884882 -2.334398 -6.156317 -0.851048 1.763409 6.324388 -15.129606 -7.907292 -2.487716 -0.184672 -0.222898 0.000000 0.000000 0.000000 -1.781724 16.403236 1.656130 -68.106726 11.393789 -11.108734 -4.170699 -15.413102 0.009875 5.782793 -0.612943 -0.026825 -0.082654 -0.085804 -0.000000 0.000000 0.000000 0.000000 0.000000 0.000000 0.000000 4.775013 -10.177309 -4.338834 80.206336 14.076425 23.811439 -179.365397 71.144186 179.905330 -8.917012 12.453984 -1.051444 0.112847 -0.814030 -0.000000 0.000000 0.000000 0.000000 0.000000 0.000000 0.000000 
